<?xml version="1.0" encoding="UTF-8" standalone="no"?>
<!-- Created with Inkscape (http://www.inkscape.org/) -->

<svg
   width="822.72272"
   height="224.75311"
   viewBox="0 0 822.72272 224.75311"
   version="1.1"
   id="svg1"
   xml:space="preserve"
   inkscape:version="1.3.2 (091e20e, 2023-11-25, custom)"
   sodipodi:docname="drawing.svg"
   xmlns:inkscape="http://www.inkscape.org/namespaces/inkscape"
   xmlns:sodipodi="http://sodipodi.sourceforge.net/DTD/sodipodi-0.dtd"
   xmlns="http://www.w3.org/2000/svg"
   xmlns:svg="http://www.w3.org/2000/svg"><sodipodi:namedview
     id="namedview1"
     pagecolor="#505050"
     bordercolor="#ffffff"
     borderopacity="1"
     inkscape:showpageshadow="0"
     inkscape:pageopacity="0"
     inkscape:pagecheckerboard="1"
     inkscape:deskcolor="#505050"
     inkscape:document-units="px"
     inkscape:zoom="2.2456165"
     inkscape:cx="284.55438"
     inkscape:cy="259.39425"
     inkscape:window-width="1920"
     inkscape:window-height="1009"
     inkscape:window-x="1912"
     inkscape:window-y="-8"
     inkscape:window-maximized="1"
     inkscape:current-layer="layer1" /><defs
     id="defs1"><inkscape:path-effect
       effect="powerclip"
       id="path-effect5"
       is_visible="true"
       lpeversion="1"
       inverse="true"
       flatten="false"
       hide_clip="false"
       message="Use fill-rule evenodd on &lt;b&gt;fill and stroke&lt;/b&gt; dialog if no flatten result after convert clip to paths." /><clipPath
       clipPathUnits="userSpaceOnUse"
       id="clipPath5"><path
         id="path5"
         style="font-weight:bold;font-size:192px;font-family:Inter;-inkscape-font-specification:'Inter Bold';display:none;fill:#1a1a1a;stroke-width:0.0975267"
         d="m 5.747555,6.6968142 c 0,0.9284443 0,1.8568879 0,2.785333 1.4764848,0 2.9529685,0 4.429453,0 0,3.5279688 0,7.0559378 0,10.5839068 1.284166,0 2.568333,0 3.8525,0 0,-3.527969 -10e-7,-7.055938 0,-10.5839068 1.476483,0 2.952967,0 4.429453,0 0,-0.9896429 -10e-7,-1.9792866 0,-2.9689303 -4.237137,0 -8.4742712,0 -12.711406,0 0,0.061199 0,0.1223979 0,0.1835973 z" /><path
         id="lpe_path-effect5"
         style="font-weight:bold;font-size:192px;font-family:Inter;-inkscape-font-specification:'Inter Bold';fill:#1a1a1a;stroke-width:0.0975267"
         class="powerclip"
         d="M -3.7503601,-1.75 H 27.75136 V 25.81 H -3.7503601 Z M 5.747555,6.6968142 c 0,0.9284443 0,1.8568879 0,2.785333 1.4764848,0 2.9529685,0 4.429453,0 0,3.5279688 0,7.0559378 0,10.5839068 1.284166,0 2.568333,0 3.8525,0 0,-3.527969 -10e-7,-7.055938 0,-10.5839068 1.476483,0 2.952967,0 4.429453,0 0,-0.9896429 -10e-7,-1.9792866 0,-2.9689303 -4.237137,0 -8.4742712,0 -12.711406,0 0,0.061199 0,0.1223979 0,0.1835973 z" /></clipPath></defs><g
     inkscape:label="Layer 1"
     inkscape:groupmode="layer"
     id="layer1"
     transform="translate(-42.779285,-119.37744)"><g
       id="g1"
       transform="matrix(11.339739,0,0,12.799152,28.608694,77.780197)"
       clip-path="url(#clipPath5)"
       inkscape:path-effect="#path-effect5"><path
         fill="#f9f9f9"
         d="M 7.624,4.449 C 9.501,3.698 10.621,3.25 12,3.25 c 1.379,0 2.499,0.448 4.376,1.199 l 2.97,1.188 c 0.954,0.382 1.727,0.69 2.258,0.969 0.268,0.14 0.528,0.3 0.729,0.493 0.206,0.198 0.417,0.498 0.417,0.901 0,0.403 -0.21,0.703 -0.417,0.901 -0.2,0.193 -0.46,0.352 -0.73,0.493 -0.53,0.278 -1.303,0.587 -2.258,0.97 l -2.97,1.187 C 14.5,12.302 13.38,12.75 12,12.75 10.62,12.75 9.501,12.302 7.624,11.551 L 4.655,10.363 C 3.7,9.981 2.927,9.673 2.396,9.394 A 3.2,3.2 0 0 1 1.667,8.901 C 1.461,8.703 1.25,8.403 1.25,8 1.25,7.597 1.46,7.297 1.667,7.099 1.867,6.906 2.127,6.747 2.397,6.606 2.927,6.328 3.7,6.019 4.655,5.636 Z"
         id="path1"
         inkscape:original-d="M 7.624,4.449 C 9.501,3.698 10.621,3.25 12,3.25 c 1.379,0 2.499,0.448 4.376,1.199 l 2.97,1.188 c 0.954,0.382 1.727,0.69 2.258,0.969 0.268,0.14 0.528,0.3 0.729,0.493 0.206,0.198 0.417,0.498 0.417,0.901 0,0.403 -0.21,0.703 -0.417,0.901 -0.2,0.193 -0.46,0.352 -0.73,0.493 -0.53,0.278 -1.303,0.587 -2.258,0.97 l -2.97,1.187 C 14.5,12.302 13.38,12.75 12,12.75 10.62,12.75 9.501,12.302 7.624,11.551 L 4.655,10.363 C 3.7,9.981 2.927,9.673 2.396,9.394 A 3.2,3.2 0 0 1 1.667,8.901 C 1.461,8.703 1.25,8.403 1.25,8 1.25,7.597 1.46,7.297 1.667,7.099 1.867,6.906 2.127,6.747 2.397,6.606 2.927,6.328 3.7,6.019 4.655,5.636 Z" /><path
         fill="#f9f9f9"
         d="M 2.502,11.443 2.5,11.44 a 0.75036008,0.75036008 0 0 0 -1,1.119 L 2,12 l -0.5,0.559 0.002,0.002 0.005,0.004 0.014,0.012 0.045,0.039 q 0.057,0.047 0.161,0.129 c 0.14,0.108 0.343,0.256 0.61,0.429 0.533,0.346 1.32,0.79 2.363,1.207 l 2.809,1.124 0.115,0.046 c 1.877,0.751 2.997,1.199 4.376,1.199 1.379,0 2.499,-0.448 4.375,-1.199 L 16.491,15.505 19.3,14.38 a 13.7,13.7 0 0 0 2.363,-1.207 9,9 0 0 0 0.771,-0.558 l 0.045,-0.039 0.014,-0.012 0.005,-0.004 10e-4,-0.002 h 0.002 a 0.75036008,0.75036008 0 0 0 -1,-1.119 l -0.002,0.002 -0.002,10e-4 -0.024,0.021 -0.118,0.094 a 8,8 0 0 1 -0.508,0.357 c -0.46,0.299 -1.161,0.697 -2.105,1.074 l -2.808,1.123 c -2.025,0.81 -2.874,1.138 -3.934,1.138 -1.06,0 -1.91,-0.328 -3.934,-1.138 L 5.257,12.99 A 12,12 0 0 1 3.153,11.916 8,8 0 0 1 2.503,11.444"
         opacity="0.7"
         id="path2"
         inkscape:original-d="M 2.502,11.443 2.5,11.44 a 0.75036008,0.75036008 0 0 0 -1,1.119 L 2,12 l -0.5,0.559 0.002,0.002 0.005,0.004 0.014,0.012 0.045,0.039 q 0.057,0.047 0.161,0.129 c 0.14,0.108 0.343,0.256 0.61,0.429 0.533,0.346 1.32,0.79 2.363,1.207 l 2.809,1.124 0.115,0.046 c 1.877,0.751 2.997,1.199 4.376,1.199 1.379,0 2.499,-0.448 4.375,-1.199 L 16.491,15.505 19.3,14.38 a 13.7,13.7 0 0 0 2.363,-1.207 9,9 0 0 0 0.771,-0.558 l 0.045,-0.039 0.014,-0.012 0.005,-0.004 10e-4,-0.002 h 0.002 a 0.75036008,0.75036008 0 0 0 -1,-1.119 l -0.002,0.002 -0.002,10e-4 -0.024,0.021 -0.118,0.094 a 8,8 0 0 1 -0.508,0.357 c -0.46,0.299 -1.161,0.697 -2.105,1.074 l -2.808,1.123 c -2.025,0.81 -2.874,1.138 -3.934,1.138 -1.06,0 -1.91,-0.328 -3.934,-1.138 L 5.257,12.99 A 12,12 0 0 1 3.153,11.916 8,8 0 0 1 2.503,11.444" /><path
         fill="#f9f9f9"
         d="m 2.499,15.5 a 0.75,0.75 0 0 0 -1,1.118 H 1.5 l 0.002,0.002 0.005,0.004 0.014,0.012 0.045,0.039 0.161,0.13 c 0.14,0.107 0.343,0.255 0.61,0.428 0.533,0.346 1.32,0.79 2.363,1.207 l 2.809,1.124 0.115,0.046 c 1.877,0.751 2.997,1.2 4.376,1.2 1.379,0 2.499,-0.449 4.375,-1.2 L 16.491,19.564 19.3,18.44 a 13.7,13.7 0 0 0 2.363,-1.208 9,9 0 0 0 0.771,-0.558 l 0.045,-0.039 0.014,-0.012 0.005,-0.004 10e-4,-0.001 0.002,-0.002 a 0.75,0.75 0 0 0 -1,-1.118 l -0.002,0.002 -0.002,10e-4 -0.024,0.021 -0.118,0.094 a 8,8 0 0 1 -0.508,0.357 c -0.46,0.299 -1.161,0.697 -2.105,1.074 L 15.934,18.17 C 13.909,18.98 13.06,19.308 12,19.308 10.94,19.308 10.09,18.98 8.066,18.17 L 5.257,17.047 A 12,12 0 0 1 3.153,15.974 8,8 0 0 1 2.527,15.522 l -0.025,-0.02 z"
         opacity="0.4"
         id="path3"
         inkscape:original-d="m 2.499,15.5 a 0.75,0.75 0 0 0 -1,1.118 H 1.5 l 0.002,0.002 0.005,0.004 0.014,0.012 0.045,0.039 0.161,0.13 c 0.14,0.107 0.343,0.255 0.61,0.428 0.533,0.346 1.32,0.79 2.363,1.207 l 2.809,1.124 0.115,0.046 c 1.877,0.751 2.997,1.2 4.376,1.2 1.379,0 2.499,-0.449 4.375,-1.2 L 16.491,19.564 19.3,18.44 a 13.7,13.7 0 0 0 2.363,-1.208 9,9 0 0 0 0.771,-0.558 l 0.045,-0.039 0.014,-0.012 0.005,-0.004 10e-4,-0.001 0.002,-0.002 a 0.75,0.75 0 0 0 -1,-1.118 l -0.002,0.002 -0.002,10e-4 -0.024,0.021 -0.118,0.094 a 8,8 0 0 1 -0.508,0.357 c -0.46,0.299 -1.161,0.697 -2.105,1.074 L 15.934,18.17 C 13.909,18.98 13.06,19.308 12,19.308 10.94,19.308 10.09,18.98 8.066,18.17 L 5.257,17.047 A 12,12 0 0 1 3.153,15.974 8,8 0 0 1 2.527,15.522 l -0.025,-0.02 z" /></g><text
       style="font-weight:bold;font-size:192px;font-family:Inter;-inkscape-font-specification:'Inter Bold';fill:#ffffff"
       x="303.54733"
       y="304.80688"
       id="text11">i</text><text
       style="font-weight:bold;font-size:192px;font-family:Inter;-inkscape-font-specification:'Inter Bold';fill:#ffffff"
       x="355.77451"
       y="304.80688"
       id="text10">l</text><text
       style="font-weight:bold;font-size:192px;font-family:Inter;-inkscape-font-specification:'Inter Bold';fill:#ffffff"
       x="408.00168"
       y="304.80688"
       id="text9">e</text><text
       style="font-weight:bold;font-size:192px;font-family:Inter;-inkscape-font-specification:'Inter Bold';fill:#ffffff"
       x="522.75171"
       y="304.80688"
       id="text8">P</text><text
       style="font-weight:bold;font-size:192px;font-family:Inter;-inkscape-font-specification:'Inter Bold';fill:#ffffff"
       x="644.32019"
       y="304.80688"
       id="text7">a</text><text
       style="font-weight:bold;font-size:192px;font-family:Inter;-inkscape-font-specification:'Inter Bold';fill:#ffffff"
       x="755.72925"
       y="304.80688"
       id="text6">d</text></g></svg>
