<svg xmlns="http://www.w3.org/2000/svg" xml:space="preserve" width="822.723" height="224.753">
  <defs>
    <clipPath id="a" clipPathUnits="userSpaceOnUse">
      <path d="M-3.75-1.75H27.75v27.56H-3.75Zm9.498 8.447v2.785h4.429v10.584h3.853V9.482h4.429V6.513H5.748v.184z" class="powerclip" style="font-weight:700;font-size:192px;font-family:Inter;-inkscape-font-specification:&quot;Inter Bold&quot;;fill:#1a1a1a;stroke-width:.0975267"/>
    </clipPath>
  </defs>
  <g fill="#f9f9f9" clip-path="url(#a)" transform="matrix(11.33974 0 0 12.79915 -14.17 -41.597)">
    <path d="M7.624 4.449C9.501 3.698 10.621 3.25 12 3.25c1.379 0 2.499.448 4.376 1.199l2.97 1.188c.954.382 1.727.69 2.258.969.268.14.528.3.729.493.206.198.417.498.417.901s-.21.703-.417.901c-.2.193-.46.352-.73.493-.53.278-1.303.587-2.258.97l-2.97 1.187C14.5 12.302 13.38 12.75 12 12.75s-2.499-.448-4.376-1.199l-2.969-1.188c-.955-.382-1.728-.69-2.259-.969a3.2 3.2 0 0 1-.729-.493C1.461 8.703 1.25 8.403 1.25 8s.21-.703.417-.901c.2-.193.46-.352.73-.493.53-.278 1.303-.587 2.258-.97Z"/>
    <path d="M2.502 11.443 2.5 11.44a.75.75 0 0 0-1 1.119L2 12l-.5.559.002.002.005.004.014.012.045.039q.057.047.161.129c.14.108.343.256.61.429.533.346 1.32.79 2.363 1.207l2.809 1.124.115.046c1.877.751 2.997 1.199 4.376 1.199 1.379 0 2.499-.448 4.375-1.199l.116-.046L19.3 14.38a13.7 13.7 0 0 0 2.363-1.207 9 9 0 0 0 .771-.558l.045-.039.014-.012.005-.004.001-.002h.002a.75.75 0 0 0-1-1.119l-.002.002-.002.001-.024.021-.118.094a8 8 0 0 1-.508.357c-.46.299-1.161.697-2.105 1.074l-2.808 1.123c-2.025.81-2.874 1.138-3.934 1.138s-1.91-.328-3.934-1.138L5.257 12.99a12 12 0 0 1-2.104-1.074 8 8 0 0 1-.65-.472" opacity=".7"/>
    <path d="M2.499 15.5a.75.75 0 0 0-1 1.118H1.5l.002.002.005.004.014.012.045.039.161.13c.14.107.343.255.61.428.533.346 1.32.79 2.363 1.207l2.809 1.124.115.046c1.877.751 2.997 1.2 4.376 1.2 1.379 0 2.499-.449 4.375-1.2l.116-.046L19.3 18.44a13.7 13.7 0 0 0 2.363-1.208 9 9 0 0 0 .771-.558l.045-.039.014-.012.005-.004.001-.001.002-.002a.75.75 0 0 0-1-1.118l-.002.002-.002.001-.024.021-.118.094a8 8 0 0 1-.508.357c-.46.299-1.161.697-2.105 1.074l-2.808 1.123c-2.025.81-2.874 1.138-3.934 1.138s-1.91-.328-3.934-1.138l-2.809-1.123a12 12 0 0 1-2.104-1.073 8 8 0 0 1-.626-.452l-.025-.02z" opacity=".4"/>
  </g>
  <path d="M315.138 304.807V200.08h29.046v104.727zM329.73 186.58q-6.477 0-11.113-4.296-4.569-4.363-4.569-10.432 0-6 4.569-10.295 4.636-4.364 11.113-4.364 6.477 0 11.046 4.364 4.636 4.295 4.636 10.295 0 6.069-4.636 10.432-4.569 4.296-11.046 4.296z" aria-label="i" style="font-weight:700;font-size:192px;font-family:Inter;-inkscape-font-specification:&quot;Inter Bold&quot;;fill:#fff" transform="translate(-42.78 -119.377)"/>
  <path d="M396.41 165.17v139.637h-29.045V165.17Z" aria-label="l" style="font-weight:700;font-size:192px;font-family:Inter;-inkscape-font-specification:&quot;Inter Bold&quot;;fill:#fff" transform="translate(-42.78 -119.377)"/>
  <path d="M467.32 306.852q-16.16 0-27.818-6.545-11.591-6.614-17.864-18.682-6.273-12.136-6.273-28.704 0-16.16 6.273-28.364 6.273-12.205 17.66-19.023 11.454-6.818 26.863-6.818 10.363 0 19.295 3.34 9 3.274 15.682 9.887 6.75 6.614 10.5 16.637 3.75 9.954 3.75 23.318v7.977h-88.432v-18h61.091q0-6.273-2.727-11.114-2.727-4.84-7.568-7.568-4.773-2.795-11.114-2.795-6.614 0-11.727 3.068-5.046 3-7.91 8.114-2.863 5.045-2.931 11.25v17.113q0 7.773 2.864 13.432 2.931 5.66 8.25 8.727 5.318 3.069 12.613 3.069 4.841 0 8.864-1.364 4.023-1.364 6.886-4.091 2.864-2.727 4.364-6.682l26.863 1.773q-2.045 9.682-8.386 16.909-6.273 7.16-16.227 11.182-9.887 3.954-22.841 3.954z" aria-label="e" style="font-weight:700;font-size:192px;font-family:Inter;-inkscape-font-specification:&quot;Inter Bold&quot;;fill:#fff" transform="translate(-42.78 -119.377)"/>
  <path d="M534.888 304.807V165.17h55.091q15.886 0 27.068 6.068 11.182 6 17.046 16.704 5.931 10.637 5.931 24.546 0 13.909-6 24.545-6 10.637-17.386 16.568-11.318 5.932-27.409 5.932h-35.114v-23.659h30.341q8.523 0 14.046-2.932 5.59-3 8.318-8.25 2.795-5.318 2.795-12.204 0-6.955-2.795-12.137-2.727-5.25-8.318-8.113-5.591-2.932-14.182-2.932h-19.91v115.5z" aria-label="P" style="font-weight:700;font-size:192px;font-family:Inter;-inkscape-font-specification:&quot;Inter Bold&quot;;fill:#fff" transform="translate(-42.78 -119.377)"/>
  <path d="M685.775 306.784q-10.023 0-17.864-3.477-7.84-3.546-12.409-10.432-4.5-6.954-4.5-17.318 0-8.727 3.205-14.66 3.204-5.931 8.727-9.545 5.523-3.613 12.545-5.454 7.091-1.841 14.864-2.591 9.136-.955 14.727-1.773 5.591-.886 8.114-2.59 2.523-1.705 2.523-5.046v-.41q0-6.477-4.091-10.022-4.023-3.545-11.455-3.545-7.84 0-12.477 3.477-4.637 3.409-6.137 8.59l-26.863-2.181q2.045-9.546 8.045-16.5 6-7.023 15.478-10.773 9.545-3.818 22.09-3.818 8.728 0 16.705 2.045 8.045 2.046 14.25 6.341 6.273 4.296 9.886 11.046 3.614 6.682 3.614 16.023v70.636h-27.545v-14.523h-.819q-2.522 4.91-6.75 8.66-4.227 3.681-10.159 5.795-5.932 2.045-13.704 2.045zm8.318-20.045q6.409 0 11.318-2.523 4.91-2.59 7.705-6.955 2.795-4.363 2.795-9.886v-11.114q-1.364.887-3.75 1.637-2.318.682-5.25 1.295-2.932.546-5.864 1.023-2.931.41-5.318.75-5.113.75-8.932 2.386-3.818 1.637-5.931 4.432-2.114 2.727-2.114 6.818 0 5.932 4.295 9.069 4.364 3.068 11.046 3.068z" aria-label="a" style="font-weight:700;font-size:192px;font-family:Inter;-inkscape-font-specification:&quot;Inter Bold&quot;;fill:#fff" transform="translate(-42.78 -119.377)"/>
  <path d="M805.911 306.511q-11.932 0-21.614-6.136-9.613-6.204-15.272-18.204-5.591-12.069-5.591-29.591 0-18 5.795-29.932 5.796-12 15.41-17.932 9.681-6 21.204-6 8.795 0 14.659 3 5.932 2.932 9.545 7.364 3.682 4.363 5.591 8.59h.887v-52.5h28.977v139.637h-28.636v-16.773h-1.228q-2.045 4.364-5.795 8.66-3.682 4.227-9.614 7.022-5.863 2.795-14.318 2.795zm9.205-23.113q7.022 0 11.863-3.818 4.91-3.887 7.5-10.841 2.66-6.955 2.66-16.296 0-9.34-2.592-16.227-2.59-6.886-7.5-10.636-4.909-3.75-11.931-3.75-7.16 0-12.069 3.886-4.909 3.886-7.431 10.773-2.523 6.886-2.523 15.954 0 9.137 2.523 16.16 2.59 6.954 7.431 10.908 4.91 3.887 12.069 3.887z" aria-label="d" style="font-weight:700;font-size:192px;font-family:Inter;-inkscape-font-specification:&quot;Inter Bold&quot;;fill:#fff" transform="translate(-42.78 -119.377)"/>
</svg>
